<?xml version="1.0" standalone="no"?>
<!DOCTYPE svg PUBLIC "-//W3C//DTD SVG 20010904//EN"
 "http://www.w3.org/TR/2001/REC-SVG-20010904/DTD/svg10.dtd">
<svg version="1.0" xmlns="http://www.w3.org/2000/svg"
 width="512.000000pt" height="512.000000pt" viewBox="0 0 512.000000 512.000000"
 preserveAspectRatio="xMidYMid meet">
<metadata>
Created by potrace 1.11, written by Peter Selinger 2001-2013
</metadata>
<g transform="translate(0.000000,512.000000) scale(0.100000,-0.100000)"
fill="#000000" stroke="none">
<path d="M2410 4532 c-140 -78 -260 -143 -320 -174 -25 -13 -46 -26 -48 -30
-2 -5 -9 -8 -16 -8 -6 0 -28 -11 -49 -25 -20 -14 -37 -23 -37 -19 0 3 -6 2
-12 -3 -14 -11 -80 -48 -164 -93 -27 -15 -71 -39 -95 -53 -25 -15 -49 -24 -52
-20 -4 3 -7 2 -7 -4 0 -6 -26 -23 -57 -39 -32 -16 -60 -31 -63 -34 -12 -12
-128 -68 -134 -64 -3 2 -4 1 -1 -3 3 -3 -17 -18 -44 -32 -78 -41 -168 -90
-265 -143 -49 -27 -123 -68 -165 -90 -42 -22 -88 -49 -103 -59 -14 -11 -33
-19 -41 -19 -9 0 -17 -3 -19 -7 -3 -7 -27 -21 -163 -92 -27 -14 -52 -28 -55
-31 -3 -3 -27 -17 -55 -31 -124 -65 -160 -84 -165 -89 -3 -3 -34 -20 -70 -39
-101 -52 -131 -72 -124 -83 3 -5 8 -7 11 -4 4 3 13 -2 22 -12 9 -9 23 -17 31
-17 8 0 14 -6 12 -14 -2 -8 3 -11 12 -8 9 4 22 0 30 -8 8 -8 22 -15 30 -15 9
0 16 -4 16 -10 0 -5 7 -10 16 -10 8 0 12 -5 8 -11 -4 -8 0 -9 15 -4 12 4 22 2
22 -4 1 -6 2 -15 3 -20 0 -5 5 -13 10 -18 5 -4 6 -3 2 4 -3 6 -2 14 4 18 6 3
13 -1 16 -9 3 -9 10 -14 14 -11 5 3 15 -1 23 -9 8 -8 17 -12 21 -9 3 4 6 1 6
-6 0 -6 8 -11 17 -9 10 2 18 -2 18 -9 0 -6 4 -15 9 -20 5 -5 6 -3 2 5 -4 6 -2
12 3 12 6 0 11 -4 11 -10 0 -5 5 -10 12 -10 6 0 20 -8 31 -17 12 -11 17 -12
12 -4 -6 10 -4 12 4 7 7 -5 10 -14 7 -21 -3 -9 2 -11 15 -8 11 3 28 -2 38 -11
10 -9 21 -13 26 -9 4 5 5 3 1 -4 -4 -7 2 -13 16 -15 17 -2 22 -9 20 -23 -2
-16 -1 -17 7 -5 8 12 13 12 35 1 14 -8 22 -19 19 -24 -4 -6 0 -8 8 -5 18 7 92
-36 81 -47 -4 -4 -2 -5 5 -1 12 7 52 -11 65 -29 5 -6 8 -6 8 -1 0 6 7 1 16
-10 8 -10 13 -13 9 -7 -4 9 -1 11 9 7 9 -3 16 -14 16 -23 0 -14 2 -14 10 -1 8
12 10 12 10 -5 0 -15 3 -17 9 -7 7 11 9 11 14 -2 4 -9 14 -16 22 -16 10 0 13
-5 9 -12 -4 -6 -3 -8 4 -4 15 9 78 -25 92 -49 7 -13 9 -14 6 -3 -4 12 -1 15
10 11 7 -3 14 -9 14 -14 0 -5 7 -9 16 -9 8 0 13 -4 9 -9 -3 -6 4 -8 15 -6 11
2 20 0 20 -4 0 -4 18 -15 40 -25 22 -10 40 -22 40 -27 0 -5 3 -8 8 -7 12 2 59
-20 67 -31 3 -6 15 -11 26 -11 20 0 27 -16 9 -22 -6 -2 0 -9 12 -17 21 -13 22
-13 9 2 -12 15 -11 17 9 17 16 0 20 -4 16 -16 -3 -9 -2 -12 4 -9 6 4 31 -3 55
-15 44 -21 57 -43 33 -53 -10 -4 -10 -6 0 -6 7 -1 15 6 18 14 4 8 10 12 15 9
5 -3 7 -9 4 -14 -3 -5 4 -7 15 -5 11 2 20 0 20 -6 0 -5 6 -9 14 -9 8 0 22 -8
32 -18 10 -9 19 -16 21 -14 2 1 6 2 11 2 4 0 0 -5 -8 -11 -13 -9 -12 -10 3 -5
21 7 49 -3 41 -15 -3 -5 2 -6 10 -3 9 3 16 1 16 -5 0 -7 8 -11 18 -9 11 2 17
-3 16 -15 -2 -14 1 -15 12 -6 13 11 18 6 15 -14 -1 -5 3 -6 8 -3 11 7 62 -14
56 -23 -2 -4 6 -8 17 -8 12 -1 26 -7 32 -14 8 -9 7 -10 -3 -4 -10 5 -12 4 -7
-4 4 -6 11 -9 15 -6 9 5 91 -32 91 -41 0 -3 -6 -2 -12 2 -10 5 -10 3 0 -7 11
-11 14 -12 21 -1 7 11 9 11 14 0 2 -8 23 -20 46 -28 23 -7 41 -19 41 -25 0 -7
8 -19 18 -26 15 -13 16 -12 3 4 -9 11 -10 17 -2 17 6 0 14 -7 17 -15 4 -8 15
-15 26 -15 10 0 16 -4 13 -10 -4 -6 1 -7 11 -3 14 5 16 3 11 -12 -6 -15 -5
-16 8 -5 10 8 15 9 15 1 0 -6 12 -14 27 -17 15 -4 36 -17 46 -28 10 -12 15
-15 12 -8 -6 11 -3 12 14 3 11 -7 21 -16 21 -22 0 -6 4 -7 10 -4 16 10 59 -25
53 -43 -4 -15 -3 -15 6 -2 9 13 14 13 38 -3 15 -10 36 -21 46 -24 9 -3 17 -10
17 -15 0 -5 10 -2 21 6 12 8 28 12 36 9 7 -3 13 -2 12 3 -4 23 3 26 24 8 12
-10 16 -12 10 -4 -16 17 -17 30 -2 30 6 0 25 10 42 22 18 13 28 16 23 7 -4 -7
0 -5 8 5 14 18 21 15 17 -7 -1 -5 3 -6 8 -2 6 3 7 13 4 23 -3 9 -2 14 2 9 5
-4 17 1 28 10 15 13 19 14 13 3 -7 -13 -6 -13 6 0 17 20 73 55 64 41 -4 -6 -2
-11 3 -11 6 0 11 6 11 14 0 14 36 32 53 28 4 -1 7 2 7 8 0 5 9 10 21 10 11 0
17 5 14 10 -3 6 1 10 9 10 9 0 16 5 16 11 0 8 5 7 15 -1 13 -10 18 -11 28 -1
9 10 8 11 -8 5 -18 -7 -19 -6 -6 9 8 11 21 15 33 11 10 -3 18 -2 17 3 -3 20 2
27 11 13 8 -13 10 -13 10 2 0 14 42 37 62 34 4 -1 13 7 21 17 7 11 25 20 40
20 17 1 25 7 22 15 -2 7 4 12 15 12 11 0 20 5 20 12 0 6 3 8 6 5 4 -4 19 2 34
13 14 10 33 20 40 22 8 2 23 11 33 20 11 9 28 15 38 13 11 -2 17 0 14 5 -7 11
30 32 39 23 3 -3 6 -1 6 7 0 10 3 10 15 0 13 -11 14 -10 10 2 -4 11 6 21 34
35 22 11 38 15 34 9 -3 -6 6 2 20 17 25 26 56 30 41 5 -4 -7 -2 -8 5 -4 6 4 9
12 6 17 -4 5 5 14 19 21 14 6 26 16 26 22 0 6 5 4 10 -4 9 -13 10 -13 10 1 0
8 16 21 35 29 19 8 35 16 35 20 0 3 9 6 20 7 13 1 18 -2 14 -9 -4 -7 -2 -8 4
-4 6 4 8 14 5 23 -5 13 -2 15 15 11 12 -3 20 -3 19 1 -1 3 2 7 7 8 5 1 12 5
15 10 3 4 16 14 29 21 12 6 31 18 42 25 17 10 22 9 31 -3 9 -13 10 -12 5 3 -4
12 1 20 17 26 12 5 25 7 30 4 4 -2 6 1 5 9 -2 7 4 12 13 10 9 -1 19 5 23 13 3
9 10 13 16 10 6 -4 7 -11 4 -17 -4 -7 -2 -8 4 -4 6 4 9 13 5 21 -5 14 6 19 35
16 7 -1 11 4 10 11 -2 6 3 13 10 14 6 1 15 3 20 4 4 1 10 2 15 1 4 0 7 6 7 14
0 8 3 14 8 14 22 -4 42 2 37 11 -3 6 3 10 14 10 12 0 21 3 21 8 0 4 17 15 38
24 49 23 95 50 104 63 7 9 12 -8 9 -28 -1 -5 3 -6 8 -2 6 3 7 13 4 22 -5 13
-2 15 11 10 10 -4 15 -3 11 3 -5 7 27 32 45 35 3 0 14 6 25 12 20 11 20 8 20
-157 0 -98 -4 -166 -9 -162 -5 3 -6 -1 -1 -9 12 -18 13 -159 1 -152 -5 4 -6 0
-1 -8 12 -19 13 -239 1 -232 -5 4 -5 0 -1 -8 12 -19 13 -239 1 -232 -5 4 -5 0
-1 -8 13 -20 13 -399 0 -391 -6 4 -6 0 0 -9 6 -8 10 -47 10 -87 -1 -56 2 -71
12 -68 7 3 13 0 13 -7 0 -7 3 -8 8 -2 10 14 82 13 82 -1 0 -6 8 -18 18 -25 14
-11 15 -11 5 1 -7 8 -13 21 -13 30 0 9 3 11 8 5 9 -13 42 -16 42 -3 0 5 5 6
11 2 16 -10 89 -11 89 -1 0 5 5 5 10 2 6 -4 8 -10 6 -14 -3 -4 1 -8 8 -8 9 0
12 7 8 16 -5 14 -3 14 11 2 14 -11 17 -11 17 0 0 11 2 11 10 -1 7 -11 10 -11
10 -2 0 7 5 10 10 7 6 -4 8 -12 4 -18 -3 -7 1 -4 9 5 8 10 17 15 20 12 3 -4
16 -4 29 -1 16 4 23 14 24 32 1 14 -3 25 -8 25 -7 0 -7 4 -1 12 6 7 9 41 7 76
-2 46 0 61 9 57 7 -4 4 0 -6 8 -10 8 -14 18 -9 21 5 3 8 35 6 71 -2 49 0 64 9
60 7 -4 4 0 -6 8 -10 8 -14 18 -9 21 5 3 8 35 6 71 -2 49 0 64 9 60 7 -4 4 0
-6 8 -10 8 -14 18 -9 21 5 3 8 35 6 71 -2 49 0 64 9 60 7 -4 4 0 -6 8 -10 8
-15 17 -10 20 10 6 10 238 0 254 -4 6 0 17 9 24 14 12 14 14 -1 25 -9 7 -12
15 -7 18 5 3 8 35 6 71 -2 49 0 64 9 60 7 -4 4 0 -6 8 -10 8 -14 18 -9 21 5 3
8 35 6 71 -2 49 0 64 9 60 7 -4 4 0 -6 8 -10 8 -15 17 -10 20 10 6 10 244 0
254 -4 3 0 14 9 24 12 13 12 19 3 25 -8 5 -10 3 -4 -6 5 -9 4 -11 -3 -6 -8 5
-9 13 -3 24 6 13 8 90 2 122 -1 3 -25 16 -54 30 -28 14 -58 31 -65 38 -8 7
-18 10 -23 7 -5 -4 -9 -2 -9 3 0 5 -22 19 -50 32 -27 13 -50 27 -50 32 0 4 -7
8 -15 8 -14 0 -53 18 -65 30 -3 3 -22 13 -42 22 -21 10 -38 22 -38 28 0 5 -3
9 -7 8 -15 -4 -53 13 -53 23 0 6 -4 8 -9 4 -5 -3 -15 0 -23 7 -7 7 -36 24 -63
38 -28 13 -52 27 -55 30 -3 3 -27 16 -55 30 -27 13 -53 29 -57 35 -4 5 -8 6
-8 1 0 -5 -8 -2 -17 6 -10 8 -33 21 -50 29 -18 8 -33 17 -33 21 0 5 -9 8 -20
8 -11 0 -20 5 -20 10 0 6 -6 10 -14 10 -8 0 -22 7 -30 16 -9 8 -16 13 -16 9 0
-3 -13 3 -30 15 -16 12 -30 18 -30 15 0 -4 -7 1 -16 9 -8 9 -22 16 -30 16 -8
0 -14 3 -14 8 0 4 -21 15 -46 26 -24 10 -50 23 -57 30 -7 6 -43 27 -82 46 -38
19 -72 38 -75 41 -3 3 -26 16 -52 28 -27 13 -48 27 -48 32 0 5 -3 8 -7 7 -5
-1 -33 11 -63 26 -30 16 -68 36 -85 44 -16 9 -32 18 -35 21 -3 4 -27 17 -55
31 -27 14 -51 28 -53 33 -2 4 -12 7 -23 7 -10 0 -19 4 -19 9 0 5 -8 11 -17 14
-10 3 -49 23 -88 45 -38 21 -95 52 -125 68 -30 16 -58 34 -62 39 -4 6 -8 6 -8
2 0 -5 -13 1 -28 12 -16 11 -35 21 -43 23 -8 2 -16 6 -19 9 -7 8 -139 80 -142
78 -2 -1 -21 9 -43 23 -22 14 -58 34 -80 45 l-40 20 -115 -65z"/>
<path d="M270 3106 c0 -2 7 -7 16 -10 8 -3 12 -2 9 4 -6 10 -25 14 -25 6z"/>
<path d="M4506 2963 c-6 -14 -5 -15 5 -6 7 7 10 15 7 18 -3 3 -9 -2 -12 -12z"/>
<path d="M675 2900 c3 -5 8 -10 11 -10 2 0 4 5 4 10 0 6 -5 10 -11 10 -5 0 -7
-4 -4 -10z"/>
<path d="M4360 2900 c-9 -6 -10 -10 -3 -10 6 0 15 5 18 10 8 12 4 12 -15 0z"/>
<path d="M4300 2860 c-12 -7 -10 -9 7 -7 12 0 19 5 17 9 -6 10 -6 10 -24 -2z"/>
<path d="M1180 2620 c18 -12 30 -13 30 -2 0 4 -10 9 -22 9 -18 2 -20 0 -8 -7z"/>
<path d="M1270 2577 c0 -2 6 -10 14 -16 11 -9 16 -9 22 1 4 7 4 10 -1 6 -4 -4
-14 -3 -22 3 -7 6 -13 9 -13 6z"/>
<path d="M1490 2460 c0 -5 5 -10 11 -10 5 0 7 5 4 10 -3 6 -8 10 -11 10 -2 0
-4 -4 -4 -10z"/>
<path d="M975 2318 c-3 -7 -6 -214 -8 -460 -2 -390 0 -445 13 -438 10 6 21 1
35 -14 11 -12 26 -21 33 -18 7 2 12 -1 12 -7 0 -6 8 -11 18 -11 10 0 28 -9 40
-20 12 -11 28 -20 37 -20 8 0 15 -4 15 -10 0 -5 9 -10 20 -10 11 0 20 -4 20
-10 0 -5 6 -10 14 -10 7 0 26 -10 42 -22 16 -13 29 -21 29 -20 0 2 12 -2 27
-9 15 -6 25 -15 23 -20 -3 -4 4 -5 15 -2 16 4 19 2 14 -11 -4 -9 -3 -16 2 -15
5 1 20 1 33 0 17 -1 22 -6 19 -19 -3 -11 0 -19 7 -19 8 0 11 7 7 16 -4 14 -2
13 15 -1 11 -10 25 -18 31 -18 7 0 12 -4 12 -10 0 -5 9 -10 20 -10 10 0 23 -8
29 -17 5 -10 12 -17 15 -15 14 6 27 1 21 -8 -3 -6 1 -7 9 -4 9 3 16 1 16 -6 0
-6 5 -8 10 -5 6 3 10 1 10 -4 0 -6 9 -11 20 -11 11 0 23 -7 26 -15 4 -8 15
-15 26 -15 15 0 18 -4 13 -18 -4 -13 -3 -14 5 -6 9 9 22 6 51 -10 21 -11 39
-25 39 -29 0 -5 -5 -5 -12 -1 -7 4 -8 3 -4 -5 6 -9 11 -9 22 0 11 9 14 9 14 0
0 -7 5 -9 10 -6 6 3 10 -2 10 -12 0 -15 2 -16 10 -3 7 11 10 11 10 2 0 -7 5
-10 10 -7 5 3 10 0 10 -7 0 -8 10 -14 22 -15 11 -1 25 -8 29 -15 4 -7 11 -9
15 -6 3 4 12 2 20 -5 33 -30 42 -35 48 -30 3 4 6 0 6 -7 0 -7 3 -10 7 -7 3 4
12 -1 20 -11 8 -9 12 -11 8 -4 -8 15 0 15 17 0 8 -7 23 -18 33 -25 11 -6 19
-17 17 -24 -2 -10 0 -10 12 1 11 8 16 9 16 1 0 -6 3 -10 8 -9 12 3 62 -25 62
-34 0 -5 4 -7 9 -3 5 3 16 0 23 -7 21 -20 56 -38 73 -38 18 0 20 -17 3 -22 -9
-3 -9 -6 0 -12 7 -4 12 -2 12 3 0 16 23 13 46 -5 10 -8 13 -12 5 -8 -9 4 -12
3 -7 -4 4 -6 13 -9 21 -5 8 3 15 0 15 -6 0 -6 3 -10 8 -9 14 3 63 -22 58 -30
-13 -21 102 13 124 37 3 4 19 13 37 22 23 13 34 14 43 5 8 -8 9 -6 4 8 -5 13
-4 17 4 12 6 -3 15 1 20 10 5 9 12 16 15 16 21 0 46 12 51 25 5 13 9 13 23 2
9 -8 14 -9 11 -4 -3 6 0 16 8 23 8 7 14 10 14 7 0 -4 14 4 32 16 17 13 29 18
25 13 -3 -6 0 -11 7 -11 8 0 12 6 9 13 -2 6 0 15 6 19 6 3 11 1 11 -6 0 -7 8
-2 19 9 10 12 26 22 35 22 9 0 16 5 16 11 0 6 9 8 23 4 17 -5 19 -4 7 4 -13
10 -8 15 13 12 4 0 7 3 7 8 0 6 9 8 20 6 11 -2 18 0 15 5 -7 11 30 32 39 23 3
-3 6 -2 6 4 0 14 56 37 69 28 6 -3 9 0 5 8 -3 8 2 17 12 21 12 4 15 2 11 -9
-4 -8 -2 -17 4 -20 5 -4 9 -3 8 2 -3 19 1 46 7 40 3 -3 15 3 27 13 11 11 23
17 27 15 4 -2 16 5 28 15 24 23 36 26 27 8 -4 -7 0 -6 7 3 7 9 38 29 68 45 30
16 58 34 62 39 4 6 8 6 8 2 0 -4 16 3 36 17 20 13 43 22 52 19 11 -5 13 -3 7
7 -6 10 -3 12 13 8 16 -5 19 -2 14 11 -5 14 -4 14 11 2 15 -12 17 -12 11 3 -4
11 -1 16 10 16 8 0 23 9 33 19 11 12 29 19 45 17 20 -2 25 1 20 12 -4 11 -1
14 10 9 10 -3 19 1 22 10 4 9 9 13 12 10 4 -3 12 -1 20 6 40 36 44 38 44 25 0
-10 2 -10 9 1 5 8 14 10 21 6 9 -6 11 -4 6 4 -5 8 0 14 13 18 12 3 21 10 21
15 0 6 8 4 17 -3 10 -9 14 -9 10 -2 -9 14 28 37 43 28 6 -3 7 1 4 9 -3 9 -1
16 5 16 6 0 11 -6 11 -12 1 -7 7 -2 15 12 8 14 14 21 15 17 0 -5 7 -1 16 7 14
14 16 68 16 452 0 239 -2 437 -5 440 -5 6 -100 -42 -277 -140 -45 -25 -85 -46
-87 -46 -3 0 -18 -9 -34 -21 -16 -11 -29 -17 -29 -14 0 4 -7 -1 -16 -9 -8 -9
-20 -14 -25 -11 -5 4 -9 2 -9 -3 0 -5 -21 -20 -47 -33 -75 -38 -197 -103 -203
-109 -3 -3 -23 -14 -45 -25 -22 -10 -52 -28 -67 -38 -16 -10 -28 -15 -28 -10
0 4 -4 3 -8 -2 -4 -6 -32 -23 -62 -39 -91 -48 -124 -68 -137 -78 -7 -6 -13 -7
-13 -2 0 5 -4 4 -8 -1 -4 -6 -20 -17 -37 -25 -16 -8 -32 -17 -35 -20 -3 -3
-23 -14 -45 -25 -22 -10 -52 -28 -67 -38 -16 -10 -28 -15 -28 -10 0 4 -4 3 -8
-2 -4 -6 -20 -17 -37 -25 -16 -8 -32 -17 -35 -20 -3 -3 -43 -25 -89 -49 -62
-32 -89 -41 -100 -34 -54 33 -111 62 -111 55 0 -4 -5 1 -11 11 -5 9 -19 17
-29 17 -11 0 -20 4 -20 8 0 5 -16 14 -35 22 -19 8 -35 17 -35 21 0 4 -9 9 -20
12 -31 8 -34 10 -48 24 -8 7 -18 11 -23 8 -5 -4 -9 -2 -9 3 0 4 -21 19 -47 32
-27 13 -51 28 -55 34 -4 6 -8 7 -8 3 0 -5 -12 0 -27 10 -16 10 -58 34 -95 53
-38 19 -68 38 -68 42 0 5 -8 8 -18 8 -10 0 -22 4 -27 9 -6 5 -35 23 -65 39
-30 15 -82 44 -115 62 -33 18 -78 43 -100 54 -22 12 -42 23 -45 26 -3 3 -25
16 -50 28 -116 61 -235 126 -240 131 -3 3 -50 29 -104 56 -54 28 -105 56 -112
63 -12 11 -15 11 -19 0z"/>
<path d="M3346 2322 c-3 -5 1 -9 9 -9 8 0 12 4 9 9 -3 4 -7 8 -9 8 -2 0 -6 -4
-9 -8z"/>
<path d="M3096 2207 c3 -10 9 -15 12 -12 3 3 0 11 -7 18 -10 9 -11 8 -5 -6z"/>
<path d="M1950 2199 c0 -5 5 -7 10 -4 6 3 10 8 10 11 0 2 -4 4 -10 4 -5 0 -10
-5 -10 -11z"/>
<path d="M2077 2149 c7 -7 15 -10 18 -7 3 3 -2 9 -12 12 -14 6 -15 5 -6 -5z"/>
<path d="M2870 2090 c0 -5 5 -10 11 -10 5 0 7 5 4 10 -3 6 -8 10 -11 10 -2 0
-4 -4 -4 -10z"/>
<path d="M2255 2040 c-3 -6 1 -7 9 -4 18 7 21 14 7 14 -6 0 -13 -4 -16 -10z"/>
<path d="M2640 1960 c-9 -6 -10 -10 -3 -10 6 0 15 5 18 10 8 12 4 12 -15 0z"/>
<path d="M2440 1940 c8 -5 20 -10 25 -10 6 0 3 5 -5 10 -8 5 -19 10 -25 10 -5
0 -3 -5 5 -10z"/>
<path d="M4775 1451 c-3 -5 -2 -12 3 -15 5 -3 9 1 9 9 0 17 -3 19 -12 6z"/>
<path d="M4556 1438 c3 -5 10 -6 15 -3 13 9 11 12 -6 12 -8 0 -12 -4 -9 -9z"/>
<path d="M4916 1442 c-3 -5 1 -9 9 -9 8 0 12 4 9 9 -3 4 -7 8 -9 8 -2 0 -6 -4
-9 -8z"/>
<path d="M1306 1222 c-3 -5 1 -9 9 -9 8 0 12 4 9 9 -3 4 -7 8 -9 8 -2 0 -6 -4
-9 -8z"/>
<path d="M3710 1221 c0 -6 4 -12 8 -15 5 -3 9 1 9 9 0 8 -4 15 -9 15 -4 0 -8
-4 -8 -9z"/>
<path d="M3555 1119 c-3 -4 2 -6 10 -5 21 3 28 13 10 13 -9 0 -18 -4 -20 -8z"/>
<path d="M3433 1055 c0 -8 4 -12 9 -9 5 3 6 10 3 15 -9 13 -12 11 -12 -6z"/>
<path d="M1653 1035 c0 -8 4 -12 9 -9 5 3 6 10 3 15 -9 13 -12 11 -12 -6z"/>
<path d="M1736 987 c3 -10 9 -15 12 -12 3 3 0 11 -7 18 -10 9 -11 8 -5 -6z"/>
<path d="M3296 982 c-3 -5 1 -9 9 -9 8 0 12 4 9 9 -3 4 -7 8 -9 8 -2 0 -6 -4
-9 -8z"/>
<path d="M3193 915 c0 -8 4 -12 9 -9 5 3 6 10 3 15 -9 13 -12 11 -12 -6z"/>
<path d="M1910 886 c0 -2 7 -7 16 -10 8 -3 12 -2 9 4 -6 10 -25 14 -25 6z"/>
<path d="M1970 860 c0 -5 5 -10 11 -10 5 0 7 5 4 10 -3 6 -8 10 -11 10 -2 0
-4 -4 -4 -10z"/>
<path d="M2955 769 c-4 -6 -5 -12 -2 -15 2 -3 7 2 10 11 7 17 1 20 -8 4z"/>
<path d="M2835 700 c-3 -5 -1 -10 4 -10 6 0 11 5 11 10 0 6 -2 10 -4 10 -3 0
-8 -4 -11 -10z"/>
<path d="M2655 631 c-3 -5 -2 -12 3 -15 5 -3 9 1 9 9 0 17 -3 19 -12 6z"/>
</g>
</svg>
